
            <svg id="trend-chart" width="660" height="400" title="Stack Overflow Trends Chart" version="1.1" xmlns="http://www.w3.org/2000/svg"><g></g><g class="chart-area" transform="translate(100, 20)"><g transform="translate(0,300)" fill="none" font-size="10" font-family="sans-serif" text-anchor="middle"><path class="domain" stroke="#000" d="M0.5,6V0.5H410.5V6"></path><g class="tick" opacity="1" transform="translate(14.829787234042552,0)"><line stroke="#000" y2="6" x1="0.5" x2="0.5"></line><text fill="#000" y="9" x="0.5" dy="0.71em" style="font-size: 12px;">2009</text></g><g class="tick" opacity="1" transform="translate(50.2080378250591,0)"><line stroke="#000" y2="6" x1="0.5" x2="0.5"></line><text fill="#000" y="9" x="0.5" dy="0.71em" style="font-size: 12px;">2010</text></g><g class="tick" opacity="1" transform="translate(85.58628841607565,0)"><line stroke="#000" y2="6" x1="0.5" x2="0.5"></line><text fill="#000" y="9" x="0.5" dy="0.71em" style="font-size: 12px;">2011</text></g><g class="tick" opacity="1" transform="translate(120.96453900709218,0)"><line stroke="#000" y2="6" x1="0.5" x2="0.5"></line><text fill="#000" y="9" x="0.5" dy="0.71em" style="font-size: 12px;">2012</text></g><g class="tick" opacity="1" transform="translate(156.43971631205673,0)"><line stroke="#000" y2="6" x1="0.5" x2="0.5"></line><text fill="#000" y="9" x="0.5" dy="0.71em" style="font-size: 12px;">2013</text></g><g class="tick" opacity="1" transform="translate(191.81796690307328,0)"><line stroke="#000" y2="6" x1="0.5" x2="0.5"></line><text fill="#000" y="9" x="0.5" dy="0.71em" style="font-size: 12px;">2014</text></g><g class="tick" opacity="1" transform="translate(227.19621749408984,0)"><line stroke="#000" y2="6" x1="0.5" x2="0.5"></line><text fill="#000" y="9" x="0.5" dy="0.71em" style="font-size: 12px;">2015</text></g><g class="tick" opacity="1" transform="translate(262.5744680851064,0)"><line stroke="#000" y2="6" x1="0.5" x2="0.5"></line><text fill="#000" y="9" x="0.5" dy="0.71em" style="font-size: 12px;">2016</text></g><g class="tick" opacity="1" transform="translate(298.0496453900709,0)"><line stroke="#000" y2="6" x1="0.5" x2="0.5"></line><text fill="#000" y="9" x="0.5" dy="0.71em" style="font-size: 12px;">2017</text></g><g class="tick" opacity="1" transform="translate(333.42789598108743,0)"><line stroke="#000" y2="6" x1="0.5" x2="0.5"></line><text fill="#000" y="9" x="0.5" dy="0.71em" style="font-size: 12px;">2018</text></g><g class="tick" opacity="1" transform="translate(368.806146572104,0)"><line stroke="#000" y2="6" x1="0.5" x2="0.5"></line><text fill="#000" y="9" x="0.5" dy="0.71em" style="font-size: 12px;">2019</text></g><g class="tick" opacity="1" transform="translate(404.18439716312054,0)"><line stroke="#000" y2="6" x1="0.5" x2="0.5"></line><text fill="#000" y="9" x="0.5" dy="0.71em" style="font-size: 12px;">2020</text></g></g><g class="grid-lines" transform="translate(0,300)" fill="none" font-size="10" font-family="sans-serif" text-anchor="middle"><path class="domain" stroke="#000" d="M0.5,-300V0.5H410.5V-300"></path><g class="tick" opacity="1" transform="translate(14.829787234042552,0)"><line stroke="#000" y2="-300" x1="0.5" x2="0.5" style="stroke: #ccc; fill: none;"></line></g><g class="tick" opacity="1" transform="translate(50.2080378250591,0)"><line stroke="#000" y2="-300" x1="0.5" x2="0.5" style="stroke: #ccc; fill: none;"></line></g><g class="tick" opacity="1" transform="translate(85.58628841607565,0)"><line stroke="#000" y2="-300" x1="0.5" x2="0.5" style="stroke: #ccc; fill: none;"></line></g><g class="tick" opacity="1" transform="translate(120.96453900709218,0)"><line stroke="#000" y2="-300" x1="0.5" x2="0.5" style="stroke: #ccc; fill: none;"></line></g><g class="tick" opacity="1" transform="translate(156.43971631205673,0)"><line stroke="#000" y2="-300" x1="0.5" x2="0.5" style="stroke: #ccc; fill: none;"></line></g><g class="tick" opacity="1" transform="translate(191.81796690307328,0)"><line stroke="#000" y2="-300" x1="0.5" x2="0.5" style="stroke: #ccc; fill: none;"></line></g><g class="tick" opacity="1" transform="translate(227.19621749408984,0)"><line stroke="#000" y2="-300" x1="0.5" x2="0.5" style="stroke: #ccc; fill: none;"></line></g><g class="tick" opacity="1" transform="translate(262.5744680851064,0)"><line stroke="#000" y2="-300" x1="0.5" x2="0.5" style="stroke: #ccc; fill: none;"></line></g><g class="tick" opacity="1" transform="translate(298.0496453900709,0)"><line stroke="#000" y2="-300" x1="0.5" x2="0.5" style="stroke: #ccc; fill: none;"></line></g><g class="tick" opacity="1" transform="translate(333.42789598108743,0)"><line stroke="#000" y2="-300" x1="0.5" x2="0.5" style="stroke: #ccc; fill: none;"></line></g><g class="tick" opacity="1" transform="translate(368.806146572104,0)"><line stroke="#000" y2="-300" x1="0.5" x2="0.5" style="stroke: #ccc; fill: none;"></line></g><g class="tick" opacity="1" transform="translate(404.18439716312054,0)"><line stroke="#000" y2="-300" x1="0.5" x2="0.5" style="stroke: #ccc; fill: none;"></line></g></g><text x="205" y="360" class="axis-label x-axis-label" style="text-anchor: middle; font-weight: bold;">Year</text><g fill="none" font-size="10" font-family="sans-serif" text-anchor="end"><path class="domain" stroke="#000" d="M-6,300.5H0.5V0.5H-6"></path><g class="tick" opacity="1" transform="translate(0,300)"><line stroke="#000" x2="-6" y1="0.5" y2="0.5"></line><text fill="#000" x="-9" y="0.5" dy="0.32em" style="font-size: 12px;">0.00%</text></g><g class="tick" opacity="1" transform="translate(0,280)"><line stroke="#000" x2="-6" y1="0.5" y2="0.5"></line><text fill="#000" x="-9" y="0.5" dy="0.32em" style="font-size: 12px;">0.20%</text></g><g class="tick" opacity="1" transform="translate(0,260)"><line stroke="#000" x2="-6" y1="0.5" y2="0.5"></line><text fill="#000" x="-9" y="0.5" dy="0.32em" style="font-size: 12px;">0.40%</text></g><g class="tick" opacity="1" transform="translate(0,240)"><line stroke="#000" x2="-6" y1="0.5" y2="0.5"></line><text fill="#000" x="-9" y="0.5" dy="0.32em" style="font-size: 12px;">0.60%</text></g><g class="tick" opacity="1" transform="translate(0,220)"><line stroke="#000" x2="-6" y1="0.5" y2="0.5"></line><text fill="#000" x="-9" y="0.5" dy="0.32em" style="font-size: 12px;">0.80%</text></g><g class="tick" opacity="1" transform="translate(0,200)"><line stroke="#000" x2="-6" y1="0.5" y2="0.5"></line><text fill="#000" x="-9" y="0.5" dy="0.32em" style="font-size: 12px;">1.00%</text></g><g class="tick" opacity="1" transform="translate(0,180)"><line stroke="#000" x2="-6" y1="0.5" y2="0.5"></line><text fill="#000" x="-9" y="0.5" dy="0.32em" style="font-size: 12px;">1.20%</text></g><g class="tick" opacity="1" transform="translate(0,160)"><line stroke="#000" x2="-6" y1="0.5" y2="0.5"></line><text fill="#000" x="-9" y="0.5" dy="0.32em" style="font-size: 12px;">1.40%</text></g><g class="tick" opacity="1" transform="translate(0,140)"><line stroke="#000" x2="-6" y1="0.5" y2="0.5"></line><text fill="#000" x="-9" y="0.5" dy="0.32em" style="font-size: 12px;">1.60%</text></g><g class="tick" opacity="1" transform="translate(0,120)"><line stroke="#000" x2="-6" y1="0.5" y2="0.5"></line><text fill="#000" x="-9" y="0.5" dy="0.32em" style="font-size: 12px;">1.80%</text></g><g class="tick" opacity="1" transform="translate(0,99.99999999999997)"><line stroke="#000" x2="-6" y1="0.5" y2="0.5"></line><text fill="#000" x="-9" y="0.5" dy="0.32em" style="font-size: 12px;">2.00%</text></g><g class="tick" opacity="1" transform="translate(0,80.00000000000003)"><line stroke="#000" x2="-6" y1="0.5" y2="0.5"></line><text fill="#000" x="-9" y="0.5" dy="0.32em" style="font-size: 12px;">2.20%</text></g><g class="tick" opacity="1" transform="translate(0,60)"><line stroke="#000" x2="-6" y1="0.5" y2="0.5"></line><text fill="#000" x="-9" y="0.5" dy="0.32em" style="font-size: 12px;">2.40%</text></g><g class="tick" opacity="1" transform="translate(0,40)"><line stroke="#000" x2="-6" y1="0.5" y2="0.5"></line><text fill="#000" x="-9" y="0.5" dy="0.32em" style="font-size: 12px;">2.60%</text></g><g class="tick" opacity="1" transform="translate(0,20)"><line stroke="#000" x2="-6" y1="0.5" y2="0.5"></line><text fill="#000" x="-9" y="0.5" dy="0.32em" style="font-size: 12px;">2.80%</text></g><g class="tick" opacity="1" transform="translate(0,0)"><line stroke="#000" x2="-6" y1="0.5" y2="0.5"></line><text fill="#000" x="-9" y="0.5" dy="0.32em" style="font-size: 12px;">3.00%</text></g></g><g class="grid-lines" fill="none" font-size="10" font-family="sans-serif" text-anchor="end"><path class="domain" stroke="#000" d="M410,300.5H0.5V0.5H410"></path><g class="tick" opacity="1" transform="translate(0,300)"><line stroke="#000" x2="410" y1="0.5" y2="0.5" style="stroke: #ccc; fill: none;"></line></g><g class="tick" opacity="1" transform="translate(0,280)"><line stroke="#000" x2="410" y1="0.5" y2="0.5" style="stroke: #ccc; fill: none;"></line></g><g class="tick" opacity="1" transform="translate(0,260)"><line stroke="#000" x2="410" y1="0.5" y2="0.5" style="stroke: #ccc; fill: none;"></line></g><g class="tick" opacity="1" transform="translate(0,240)"><line stroke="#000" x2="410" y1="0.5" y2="0.5" style="stroke: #ccc; fill: none;"></line></g><g class="tick" opacity="1" transform="translate(0,220)"><line stroke="#000" x2="410" y1="0.5" y2="0.5" style="stroke: #ccc; fill: none;"></line></g><g class="tick" opacity="1" transform="translate(0,200)"><line stroke="#000" x2="410" y1="0.5" y2="0.5" style="stroke: #ccc; fill: none;"></line></g><g class="tick" opacity="1" transform="translate(0,180)"><line stroke="#000" x2="410" y1="0.5" y2="0.5" style="stroke: #ccc; fill: none;"></line></g><g class="tick" opacity="1" transform="translate(0,160)"><line stroke="#000" x2="410" y1="0.5" y2="0.5" style="stroke: #ccc; fill: none;"></line></g><g class="tick" opacity="1" transform="translate(0,140)"><line stroke="#000" x2="410" y1="0.5" y2="0.5" style="stroke: #ccc; fill: none;"></line></g><g class="tick" opacity="1" transform="translate(0,120)"><line stroke="#000" x2="410" y1="0.5" y2="0.5" style="stroke: #ccc; fill: none;"></line></g><g class="tick" opacity="1" transform="translate(0,99.99999999999997)"><line stroke="#000" x2="410" y1="0.5" y2="0.5" style="stroke: #ccc; fill: none;"></line></g><g class="tick" opacity="1" transform="translate(0,80.00000000000003)"><line stroke="#000" x2="410" y1="0.5" y2="0.5" style="stroke: #ccc; fill: none;"></line></g><g class="tick" opacity="1" transform="translate(0,60)"><line stroke="#000" x2="410" y1="0.5" y2="0.5" style="stroke: #ccc; fill: none;"></line></g><g class="tick" opacity="1" transform="translate(0,40)"><line stroke="#000" x2="410" y1="0.5" y2="0.5" style="stroke: #ccc; fill: none;"></line></g><g class="tick" opacity="1" transform="translate(0,20)"><line stroke="#000" x2="410" y1="0.5" y2="0.5" style="stroke: #ccc; fill: none;"></line></g><g class="tick" opacity="1" transform="translate(0,0)"><line stroke="#000" x2="410" y1="0.5" y2="0.5" style="stroke: #ccc; fill: none;"></line></g></g><g class="lines"><path class="line" d="M3.004728132387707,300L5.912529550827423,300L8.91725768321513,300L11.825059101654846,300L14.829787234042552,300L17.83451536643026,300L20.548463356973997,300L23.5531914893617,300L26.460992907801415,300L29.465721040189127,300L32.37352245862884,300L35.378250591016545,300L38.38297872340426,300L41.290780141843975,300L44.29550827423168,300L47.2033096926714,300L50.2080378250591,300L53.212765957446805,300L55.92671394799054,300L58.931442080378254,300L61.839243498817964,300L64.84397163120568,300L67.75177304964538,300L70.75650118203309,300L73.7612293144208,300L76.66903073286052,300L79.67375886524823,300L82.58156028368795,300L85.58628841607565,300L88.59101654846336,300L91.30496453900709,300L94.3096926713948,300L97.21749408983452,300L100.22222222222221,300L103.13002364066193,300L106.13475177304964,300L109.13947990543736,300L112.04728132387707,300L115.05200945626478,300L117.9598108747045,300L120.96453900709218,300L123.9692671394799,300L126.78014184397163,300L129.78486997635935,300L132.69267139479908,300L135.69739952718675,300L138.60520094562648,300L141.60992907801418,300L144.6146572104019,300L147.5224586288416,300L150.5271867612293,300L153.43498817966903,300L156.43971631205673,300L159.44444444444446,300L162.15839243498817,300L165.1631205673759,300L168.0709219858156,300L171.0756501182033,300L173.98345153664303,300L176.98817966903073,300L179.99290780141845,300L182.90070921985816,299.9458094444L185.90543735224585,300L188.8132387706856,300L191.81796690307328,300L194.822695035461,300L197.53664302600473,300L200.54137115839242,300L203.44917257683215,300L206.45390070921985,299.9386510595L209.36170212765956,300L212.36643026004728,299.9389424839L215.37115839243498,300L218.2789598108747,300L221.28368794326238,300L224.1914893617021,300L227.19621749408984,300L230.20094562647753,300L232.91489361702128,300L235.919621749409,299.9471724029L238.82742316784868,300L241.8321513002364,300L244.73995271867614,300L247.74468085106383,300L250.74940898345156,300L253.65721040189123,300L256.661938534279,299.774711349L259.5697399527187,300L262.5744680851064,300L265.5791962174941,299.9466618307L268.3900709219858,300L271.3947990543735,300L274.3026004728132,300L277.30732860520095,299.9454663446L280.21513002364065,299.9431592111L283.21985815602835,300L286.22458628841605,299.941342437L289.13238770685575,300L292.1371158392435,299.7702799713L295.0449172576832,298.883222276L298.0496453900709,298.7470027737L301.0543735224586,299.3104399394L303.7683215130023,299.2507492508L306.7730496453901,298.5913667687L309.6808510638298,294.9279389627L312.6855791962175,294.8620952489L315.59338061465724,295.4642939138L318.5981087470449,294.8369087268L321.60283687943263,295.2189058125L324.51063829787233,294.3790973423L327.51536643026003,294.7579732419L330.4231678486998,294.185362342L333.42789598108743,294.4743055207L336.4326241134752,293.1609992833L339.1465721040189,273.3834989342L342.1513002364066,269.2563253871L345.05910165484636,262.3707622025L348.063829787234,258.6730996482L350.97163120567376,254.1252519636L353.97635933806146,248.0159638019L356.98108747044915,243.7658093334L359.88888888888886,245.6136943214L362.89361702127655,247.4238349753L365.8014184397163,224.75208431419998L368.806146572104,209.0132680579L371.8108747044917,211.0571648015L374.5248226950355,210.7415366409L377.5295508274232,208.1034482759L380.4373522458629,197.3846712678L383.4420803782506,195.41365767140002L386.34988179669034,184.9818138488L389.354609929078,163.6938646427L392.35933806146573,165.4767911201L395.26713947990544,178.35981950169997L398.27186761229314,176.6645401933L401.1796690307329,142.6282569996L404.18439716312054,143.71046422L407.1891252955083,148.78654422789998L410,139.78995343309998" data-legend="flutter" style="stroke: rgb(31, 119, 180); fill: none;"></path><path class="line" d="M3.004728132387707,300L5.912529550827423,300L8.91725768321513,300L11.825059101654846,300L14.829787234042552,300L17.83451536643026,300L20.548463356973997,300L23.5531914893617,300L26.460992907801415,300L29.465721040189127,300L32.37352245862884,300L35.378250591016545,300L38.38297872340426,300L41.290780141843975,300L44.29550827423168,300L47.2033096926714,300L50.2080378250591,300L53.212765957446805,300L55.92671394799054,300L58.931442080378254,300L61.839243498817964,300L64.84397163120568,300L67.75177304964538,300L70.75650118203309,300L73.7612293144208,300L76.66903073286052,300L79.67375886524823,300L82.58156028368795,300L85.58628841607565,300L88.59101654846336,300L91.30496453900709,300L94.3096926713948,300L97.21749408983452,300L100.22222222222221,300L103.13002364066193,300L106.13475177304964,300L109.13947990543736,300L112.04728132387707,300L115.05200945626478,300L117.9598108747045,300L120.96453900709218,300L123.9692671394799,300L126.78014184397163,300L129.78486997635935,300L132.69267139479908,300L135.69739952718675,300L138.60520094562648,300L141.60992907801418,300L144.6146572104019,300L147.5224586288416,300L150.5271867612293,300L153.43498817966903,300L156.43971631205673,300L159.44444444444446,300L162.15839243498817,300L165.1631205673759,300L168.0709219858156,300L171.0756501182033,300L173.98345153664303,300L176.98817966903073,300L179.99290780141845,300L182.90070921985816,300L185.90543735224585,300L188.8132387706856,300L191.81796690307328,300L194.822695035461,300L197.53664302600473,300L200.54137115839242,300L203.44917257683215,300L206.45390070921985,300L209.36170212765956,300L212.36643026004728,300L215.37115839243498,300L218.2789598108747,300L221.28368794326238,300L224.1914893617021,300L227.19621749408984,300L230.20094562647753,300L232.91489361702128,296.46423068L235.919621749409,293.9248263293L238.82742316784868,294.2744483756L241.8321513002364,295.8886848063L244.73995271867614,294.9701545395L247.74468085106383,294.8008274428L250.74940898345156,290.2929059202L253.65721040189123,286.5918538782L256.661938534279,281.1320754717L259.5697399527187,278.818244242L262.5744680851064,278.7124349316L265.5791962174941,277.0645871893L268.3900709219858,276.030776284L271.3947990543735,276.403048195L274.3026004728132,269.5998641809L277.30732860520095,268.7522154298L280.21513002364065,262.0303529813L283.21985815602835,259.4123933399L286.22458628841605,262.9284201759L289.13238770685575,265.9694126424L292.1371158392435,264.5082555636L295.0449172576832,260.5405204185L298.0496453900709,255.0060086913L301.0543735224586,257.1898128994L303.7683215130023,248.3016983017L306.7730496453901,245.7957932578L309.6808510638298,239.24318374359999L312.6855791962175,234.7316715129L315.59338061465724,228.94060464889998L318.5981087470449,229.1351538431L321.60283687943263,227.2901130698L324.51063829787233,222.60904551160002L327.51536643026003,220.1186604239L330.4231678486998,216.24152897289997L333.42789598108743,208.38649721209998L336.4326241134752,219.0499049774L339.1465721040189,213.8021409685L342.1513002364066,209.5664893947L345.05910165484636,206.4077903343L348.063829787234,202.26481859909998L350.97163120567376,197.00297617169997L353.97635933806146,201.3065914233L356.98108747044915,186.83478854699996L359.88888888888886,195.9893232414L362.89361702127655,200.8831990987L365.8014184397163,191.3423134748L368.806146572104,181.71052366130002L371.8108747044917,181.70671494409999L374.5248226950355,190.43570338540002L377.5295508274232,188.6781609196L380.4373522458629,190.85770069019998L383.4420803782506,177.2963385279L386.34988179669034,172.78205557419997L389.354609929078,160.5945604049L392.35933806146573,171.34207870840004L395.26713947990544,171.6892289583L398.27186761229314,173.4460938982L401.1796690307329,173.2480983978L404.18439716312054,165.3061945028L407.1891252955083,166.0044977512L410,176.6967204994" data-legend="react-native" style="stroke: rgb(255, 127, 14); fill: none;"></path><path class="line" d="M3.004728132387707,300L5.912529550827423,300L8.91725768321513,300L11.825059101654846,300L14.829787234042552,300L17.83451536643026,300L20.548463356973997,300L23.5531914893617,300L26.460992907801415,300L29.465721040189127,300L32.37352245862884,300L35.378250591016545,300L38.38297872340426,300L41.290780141843975,300L44.29550827423168,300L47.2033096926714,300L50.2080378250591,300L53.212765957446805,300L55.92671394799054,300L58.931442080378254,300L61.839243498817964,300L64.84397163120568,300L67.75177304964538,300L70.75650118203309,300L73.7612293144208,300L76.66903073286052,300L79.67375886524823,300L82.58156028368795,300L85.58628841607565,300L88.59101654846336,300L91.30496453900709,300L94.3096926713948,300L97.21749408983452,300L100.22222222222221,300L103.13002364066193,300L106.13475177304964,300L109.13947990543736,300L112.04728132387707,300L115.05200945626478,300L117.9598108747045,300L120.96453900709218,300L123.9692671394799,300L126.78014184397163,300L129.78486997635935,300L132.69267139479908,300L135.69739952718675,300L138.60520094562648,300L141.60992907801418,300L144.6146572104019,300L147.5224586288416,300L150.5271867612293,300L153.43498817966903,300L156.43971631205673,300L159.44444444444446,300L162.15839243498817,300L165.1631205673759,300L168.0709219858156,300L171.0756501182033,300L173.98345153664303,300L176.98817966903073,300L179.99290780141845,300L182.90070921985816,300L185.90543735224585,300L188.8132387706856,300L191.81796690307328,299.6827159515L194.822695035461,299.4686193136L197.53664302600473,298.4629868009L200.54137115839242,297.3846958556L203.44917257683215,297.0574754271L206.45390070921985,295.2761315813L209.36170212765956,294.7623633569L212.36643026004728,291.3908902186L215.37115839243498,290.2010881001L218.2789598108747,289.0800048534L221.28368794326238,287.2871954474L224.1914893617021,287.4607747313L227.19621749408984,288.6742894322L230.20094562647753,287.7971105939L232.91489361702128,286.4374221604L235.919621749409,284.3630312476L238.82742316784868,276.9357495882L241.8321513002364,277.1474947675L244.73995271867614,278.4948444085L247.74468085106383,274.6678613702L250.74940898345156,278.7798408489L253.65721040189123,279.3223770651L256.661938534279,279.4424105886L259.5697399527187,278.11994460159997L262.5744680851064,268.0686523974L265.5791962174941,259.3563149726L268.3900709219858,258.9882097332L271.3947990543735,257.0453756104L274.3026004728132,257.450420721L277.30732860520095,258.9361574496L280.21513002364065,256.3462740863L283.21985815602835,254.0966904213L286.22458628841605,257.8838697568L289.13238770685575,254.26243149409999L292.1371158392435,256.4106245514L295.0449172576832,257.6865329016L298.0496453900709,261.3279492423L301.0543735224586,261.7294166322L303.7683215130023,265.1848151849L306.7730496453901,263.0374640095L309.6808510638298,262.3912069887L312.6855791962175,259.1790644497L315.59338061465724,255.4828847091L318.5981087470449,259.3193797483L321.60283687943263,257.9015342966L324.51063829787233,258.8194921071L327.51536643026003,257.5872380476L330.4231678486998,256.5286613182L333.42789598108743,258.9968352841L336.4326241134752,260.1496689004L339.1465721040189,261.0944798426L342.1513002364066,256.921665613L345.05910165484636,262.2505409955L348.063829787234,260.9581573295L350.97163120567376,264.2985776301L353.97635933806146,259.2643432726L356.98108747044915,262.5802225676L359.88888888888886,261.9671802455L362.89361702127655,267.6763883394L365.8014184397163,267.1976795396L368.806146572104,261.399568267L371.8108747044917,264.4777265746L374.5248226950355,264.4336478869L377.5295508274232,263.6781609196L380.4373522458629,267.3651471123L383.4420803782506,265.1590016471L386.34988179669034,264.4221002877L389.354609929078,263.8203668565L392.35933806146573,266.763370333L395.26713947990544,268.2165979989L398.27186761229314,267.9304815601L401.1796690307329,270.0275125425L404.18439716312054,270.8722438965L407.1891252955083,271.0105884558L410,268.0967006837" data-legend="ionic-framework" style="stroke: rgb(44, 160, 44); fill: none;"></path><path class="line" d="M3.004728132387707,300L5.912529550827423,300L8.91725768321513,300L11.825059101654846,300L14.829787234042552,300L17.83451536643026,300L20.548463356973997,300L23.5531914893617,300L26.460992907801415,300L29.465721040189127,300L32.37352245862884,300L35.378250591016545,300L38.38297872340426,300L41.290780141843975,300L44.29550827423168,300L47.2033096926714,300L50.2080378250591,300L53.212765957446805,300L55.92671394799054,300L58.931442080378254,300L61.839243498817964,300L64.84397163120568,300L67.75177304964538,300L70.75650118203309,299.8420770033L73.7612293144208,300L76.66903073286052,300L79.67375886524823,300L82.58156028368795,299.8555038581L85.58628841607565,300L88.59101654846336,300L91.30496453900709,299.900615192L94.3096926713948,300L97.21749408983452,300L100.22222222222221,300L103.13002364066193,300L106.13475177304964,300L109.13947990543736,300L112.04728132387707,300L115.05200945626478,299.9081599854L117.9598108747045,299.8072734982L120.96453900709218,300L123.9692671394799,299.758366558L126.78014184397163,299.8506225307L129.78486997635935,299.8452934397L132.69267139479908,299.9256538742L135.69739952718675,300L138.60520094562648,299.9294517698L141.60992907801418,300L144.6146572104019,300L147.5224586288416,299.933051256L150.5271867612293,300L153.43498817966903,300L156.43971631205673,299.9364518528L159.44444444444446,299.870054772L162.15839243498817,300L165.1631205673759,299.8253112372L168.0709219858156,299.9400486805L171.0756501182033,299.9368339935L173.98345153664303,299.943433475L176.98817966903073,299.9412421412L179.99290780141845,300L182.90070921985816,299.8916188887L185.90543735224585,299.9433841555L188.8132387706856,299.698215245L191.81796690307328,299.9471193253L194.822695035461,299.8937238628L197.53664302600473,299.9039366751L200.54137115839242,299.8461585798L203.44917257683215,299.717064945L206.45390070921985,299.877302119L209.36170212765956,299.8310439793L212.36643026004728,299.7557699353L215.37115839243498,299.218491689L218.2789598108747,298.9022227102L221.28368794326238,299.5202715264L224.1914893617021,299.1640516488L227.19621749408984,299.036109739L230.20094562647753,298.0951587269L232.91489361702128,298.733455766L235.919621749409,298.3623444888L238.82742316784868,299.0277365166L241.8321513002364,298.3447951818L244.73995271867614,298.562901297L247.74468085106383,298.9491034193L250.74940898345156,298.9841413173L253.65721040189123,296.8768173693L256.661938534279,295.4379048156L259.5697399527187,295.8683937945L262.5744680851064,295.0661633045L265.5791962174941,293.2260524955L268.3900709219858,293.3225031644L271.3947990543735,294.7392077145L274.3026004728132,294.53540316L277.30732860520095,294.3284998337L280.21513002364065,295.2822145172L283.21985815602835,295.18264423L286.22458628841605,293.66498319469997L289.13238770685575,293.7447992884L292.1371158392435,292.2469490309L295.0449172576832,293.3613768629L298.0496453900709,291.7985636096L301.0543735224586,293.04693605479997L303.7683215130023,290.9090909091L306.7730496453901,291.773581929L309.6808510638298,279.172174889L312.6855791962175,268.6079665754L315.59338061465724,270.8818868538L318.5981087470449,267.4328088919L321.60283687943263,269.140210244L324.51063829787233,264.6770643505L327.51536643026003,257.8850804771L330.4231678486998,259.2283145166L333.42789598108743,258.808459336L336.4326241134752,257.8480821207L339.1465721040189,252.9988701092L342.1513002364066,251.5911091277L345.05910165484636,250.5289733109L348.063829787234,248.9452826617L350.97163120567376,243.5096077899L353.97635933806146,240.5170441547L356.98108747044915,240.0029266866L359.88888888888886,233.8341718934L362.89361702127655,233.1397493244L365.8014184397163,233.3323209161L368.806146572104,228.85146903560002L371.8108747044917,231.9727891157L374.5248226950355,231.85711171330001L377.5295508274232,233.2183908046L380.4373522458629,229.6789865602L383.4420803782506,219.3589256304L386.34988179669034,217.0416437331L389.354609929078,218.0265654649L392.35933806146573,213.2820383452L395.26713947990544,218.38336276249998L398.27186761229314,215.91809054179998L401.1796690307329,216.2324000648L404.18439716312054,208.7330308755L407.1891252955083,211.8019115443L410,211.7209947489" data-legend="kotlin" style="stroke: rgb(214, 39, 40); fill: none;"></path><path class="line" d="M3.004728132387707,300L5.912529550827423,300L8.91725768321513,300L11.825059101654846,300L14.829787234042552,299.3644337105L17.83451536643026,299.4261448411L20.548463356973997,299.506830399L23.5531914893617,300L26.460992907801415,299.2175579986L29.465721040189127,299.6431375348L32.37352245862884,300L35.378250591016545,299.3835151964L38.38297872340426,299.3888651226L41.290780141843975,299.7224381037L44.29550827423168,299.4755473975L47.2033096926714,299.7330058205L50.2080378250591,300L53.212765957446805,299.5504304629L55.92671394799054,300L58.931442080378254,299.5977635655L61.839243498817964,299.8063966546L64.84397163120568,299.6390152336L67.75177304964538,299.834604125L70.75650118203309,299.6841540066L73.7612293144208,299.835647958L76.66903073286052,300L79.67375886524823,299.8556894437L82.58156028368795,299.7110077161L85.58628841607565,299.7489770817L88.59101654846336,299.7579571585L91.30496453900709,299.7018455759L94.3096926713948,299.685903342L97.21749408983452,299.8003932254L100.22222222222221,299.6972021479L103.13002364066193,298.8073823036L106.13475177304964,299.2538079116L109.13947990543736,299.50999608L112.04728132387707,299.4081147469L115.05200945626478,299.724479956L117.9598108747045,299.8072734982L120.96453900709218,299.4839242401L123.9692671394799,299.2750996738L126.78014184397163,299.775933796L129.78486997635935,299.6132335992L132.69267139479908,299.5539232451L135.69739952718675,299.6942480413L138.60520094562648,299.5767106183L141.60992907801418,299.7164226721L144.6146572104019,299.4690050673L147.5224586288416,299.7322050239L150.5271867612293,299.8644564025L153.43498817966903,299.7776872059L156.43971631205673,299.745807411L159.44444444444446,299.6751369298L162.15839243498817,299.7128499642L165.1631205673759,299.6506224743L168.0709219858156,299.9400486805L171.0756501182033,299.8736679869L173.98345153664303,299.6040343246L176.98817966903073,299.8824842823L179.99290780141845,299.396729065L182.90070921985816,299.512284999L185.90543735224585,299.7169207775L188.8132387706856,299.456787441L191.81796690307328,299.7355966263L194.822695035461,299.4686193136L197.53664302600473,299.8078733502L200.54137115839242,299.7948781064L203.44917257683215,299.4907169009L206.45390070921985,152.14905338589998L209.36170212765956,207.2994632831L212.36643026004728,196.0190499451L215.37115839243498,185.41885839679998L218.2789598108747,157.3467300682L221.28368794326238,145.8272617699L224.1914893617021,139.1763979629L227.19621749408984,114.9933130114L230.20094562647753,106.7181370653L232.91489361702128,109.5961834801L235.919621749409,86.84064555329996L238.82742316784868,94.09620007030003L241.8321513002364,68.3247191492L244.73995271867614,34.8039643395L247.74468085106383,18.359716368599948L250.74940898345156,42.36695073089999L253.65721040189123,68.0229176988L256.661938534279,56.18135736419998L259.5697399527187,44.4805232592L262.5744680851064,33.5728184404L265.5791962174941,45.84362315520002L268.3900709219858,46.20528817889999L271.3947990543735,56.36913396129998L274.3026004728132,64.3326294792L277.30732860520095,37.256848063799964L280.21513002364065,18.41073154099996L283.21985815602835,27.40410970290003L286.22458628841605,13.399147119100007L289.13238770685575,27.8700754642L292.1371158392435,48.68628858579996L295.0449172576832,54.9913759943L298.0496453900709,52.19132128559997L301.0543735224586,65.8368960604L303.7683215130023,68.48151848159998L306.7730496453901,78.50651070279997L309.6808510638298,78.01639246969995L312.6855791962175,62.414250628199966L315.59338061465724,56.135802400100005L318.5981087470449,61.47653062970002L321.60283687943263,64.6087264283L324.51063829787233,68.41881049869997L327.51536643026003,80.60926647369999L330.4231678486998,76.9671126863L333.42789598108743,63.39980911239999L336.4326241134752,74.6417744577L339.1465721040189,62.43171149350002L342.1513002364066,77.2943087013L345.05910165484636,81.558066843L348.063829787234,93.36549824060003L350.97163120567376,66.77176996919997L353.97635933806146,71.21940059490001L356.98108747044915,79.66231612399997L359.88888888888886,92.66787385890001L362.89361702127655,98.01095783849999L365.8014184397163,86.70898570979998L368.806146572104,102.15597533340002L371.8108747044917,113.95380732940004L374.5248226950355,114.13310909720002L377.5295508274232,101.72413793109999L380.4373522458629,96.18824918279995L383.4420803782506,74.54706702150003L386.34988179669034,97.8812140746L389.354609929078,115.11701454779998L392.35933806146573,117.8607467205L395.26713947990544,105.82415426449998L398.27186761229314,111.03122467629996L401.1796690307329,103.98122673580002L404.18439716312054,112.22895004739999L407.1891252955083,116.1075712144L410,110.90855048060001" data-legend="swift" style="stroke: rgb(148, 103, 189); fill: none;"></path><path class="line" d="M3.004728132387707,300L5.912529550827423,300L8.91725768321513,300L11.825059101654846,300L14.829787234042552,300L17.83451536643026,300L20.548463356973997,300L23.5531914893617,300L26.460992907801415,300L29.465721040189127,300L32.37352245862884,300L35.378250591016545,300L38.38297872340426,300L41.290780141843975,300L44.29550827423168,300L47.2033096926714,300L50.2080378250591,300L53.212765957446805,300L55.92671394799054,300L58.931442080378254,299.5977635655L61.839243498817964,300L64.84397163120568,300L67.75177304964538,300L70.75650118203309,300L73.7612293144208,299.6712959159L76.66903073286052,299.8424129726L79.67375886524823,299.7113788874L82.58156028368795,298.8440308644L85.58628841607565,298.6193739489L88.59101654846336,299.3948928961L91.30496453900709,299.4036911518L94.3096926713948,296.3355389899L97.21749408983452,298.3033424155L100.22222222222221,296.568291009L103.13002364066193,297.316610183L106.13475177304964,296.8286836239L109.13947990543736,296.1779694238L112.04728132387707,296.6459835654L115.05200945626478,297.0611195298L117.9598108747045,293.2545724363L120.96453900709218,293.4630403744L123.9692671394799,295.086786678L126.78014184397163,293.576768816L129.78486997635935,293.1929113455L132.69267139479908,291.7475800337L135.69739952718675,293.1970189185L138.60520094562648,294.0034004248L141.60992907801418,294.6829251002L144.6146572104019,293.7797736445L147.5224586288416,292.5686894114L150.5271867612293,293.8327663093L153.43498817966903,294.812701471L156.43971631205673,293.7722815692L159.44444444444446,294.8021908766L162.15839243498817,293.3955491745L165.1631205673759,293.8276637125L168.0709219858156,293.5852088105L171.0756501182033,293.9360633682L173.98345153664303,294.1170813936L176.98817966903073,293.9479405371L179.99290780141845,295.053178333L182.90070921985816,295.7731366578L185.90543735224585,296.6596651739L188.8132387706856,295.9560842825L191.81796690307328,296.2454720923L194.822695035461,296.3866113323L197.53664302600473,296.6858152895L200.54137115839242,296.0514035466L203.44917257683215,297.3404104822L206.45390070921985,295.6442252243L209.36170212765956,295.6634621342L212.36643026004728,295.6649163513L215.37115839243498,295.4912982056L218.2789598108747,296.1288906094L221.28368794326238,297.0016970395L224.1914893617021,297.7493698236L227.19621749408984,296.8673566515L230.20094562647753,296.7855803516L232.91489361702128,296.3059126507L235.919621749409,297.0416545604L238.82742316784868,296.81313636L241.8321513002364,296.6361966597L244.73995271867614,295.4834040763L247.74468085106383,296.6260688725L250.74940898345156,296.0494384559L253.65721040189123,295.9614017706L256.661938534279,297.2402140243L259.5697399527187,297.0322265285L262.5744680851064,297.2281816318L265.5791962174941,297.226415195L268.3900709219858,297.1595722416L271.3947990543735,285.9541953542L274.3026004728132,284.1898072006L277.30732860520095,285.8212495842L280.21513002364065,283.9140567272L283.21985815602835,283.9975193387L286.22458628841605,283.8691701715L289.13238770685575,285.9975323521L292.1371158392435,284.89590811200003L295.0449172576832,286.4125376913L298.0496453900709,286.0461672524L301.0543735224586,283.5080218821L303.7683215130023,283.4165834166L306.7730496453901,285.2938690648L309.6808510638298,282.193828273L312.6855791962175,281.8761821416L315.59338061465724,282.6971212266L318.5981087470449,283.8298789795L321.60283687943263,282.4900186898L324.51063829787233,282.4272832699L327.51536643026003,283.6782348667L330.4231678486998,282.1407557645L333.42789598108743,284.92992414729997L336.4326241134752,286.3219985665L339.1465721040189,283.2263625669L342.1513002364066,284.0703137591L345.05910165484636,284.3712430873L348.063829787234,287.9871253322L350.97163120567376,286.7304447829L353.97635933806146,287.9890185313L356.98108747044915,287.3873748319L359.88888888888886,287.9698494352L362.89361702127655,288.3983717484L365.8014184397163,289.5214809641L368.806146572104,288.0970794134L371.8108747044917,288.0678077683L374.5248226950355,287.2932822574L377.5295508274232,288.1034482759L380.4373522458629,287.967671631L383.4420803782506,287.2671987838L386.34988179669034,289.5592766395L389.354609929078,289.4370651487L392.35933806146573,289.1523713421L395.26713947990544,289.3494772836L398.27186761229314,290.0572998386L401.1796690307329,290.6133678589L404.18439716312054,288.2900536069L407.1891252955083,289.1070089956L410,288.6555038146" data-legend="xamarin.android" style="stroke: rgb(140, 86, 75); fill: none;"></path></g></g><g transform="translate(20, 150)"><text transform="rotate(-90)" x="-50" y="0" dy="1em" class="axis-label y-axis-label" style="text-anchor: middle; font-weight: bold;">% of Stack Overflow questions that month</text></g><g class="legend" transform="translate(530, 30)" style="font-size: 12px;"><text class="legend-title" style="font-weight: bold;">Tag</text><g class="legend-items" transform="translate(0,20)"><text y="0em" x="1em">swift</text><text y="1em" x="1em">flutter</text><text y="2em" x="1em">react-native</text><text y="3em" x="1em">kotlin</text><text y="4em" x="1em">ionic-framework</text><text y="5em" x="1em">xamarin.android</text><circle cy="-0.25em" cx="0" r="0.4em" style="fill: rgb(148, 103, 189);"></circle><circle cy="0.75em" cx="0" r="0.4em" style="fill: rgb(31, 119, 180);"></circle><circle cy="1.75em" cx="0" r="0.4em" style="fill: rgb(255, 127, 14);"></circle><circle cy="2.75em" cx="0" r="0.4em" style="fill: rgb(214, 39, 40);"></circle><circle cy="3.75em" cx="0" r="0.4em" style="fill: rgb(44, 160, 44);"></circle><circle cy="4.75em" cx="0" r="0.4em" style="fill: rgb(140, 86, 75);"></circle></g><rect class="legend-box"></rect></g></svg>
        